<?xml version="1.0" encoding="UTF-8" standalone="no"?>
<!-- Created with Inkscape (http://www.inkscape.org/) -->

<svg
   width="100"
   height="100"
   viewBox="0 0 26.458334 26.458333"
   version="1.1"
   id="svg5"
   xml:space="preserve"
   inkscape:version="1.2.2 (732a01da63, 2022-12-09)"
   sodipodi:docname="logo.svg"
   xmlns:inkscape="http://www.inkscape.org/namespaces/inkscape"
   xmlns:sodipodi="http://sodipodi.sourceforge.net/DTD/sodipodi-0.dtd"
   xmlns="http://www.w3.org/2000/svg"
   xmlns:svg="http://www.w3.org/2000/svg"><sodipodi:namedview
     id="namedview7"
     pagecolor="#ffffff"
     bordercolor="#666666"
     borderopacity="1.0"
     inkscape:showpageshadow="2"
     inkscape:pageopacity="0.0"
     inkscape:pagecheckerboard="0"
     inkscape:deskcolor="#d1d1d1"
     inkscape:document-units="mm"
     showgrid="false"
     inkscape:zoom="5.9081369"
     inkscape:cx="48.577073"
     inkscape:cy="49.000219"
     inkscape:window-width="1920"
     inkscape:window-height="1010"
     inkscape:window-x="-6"
     inkscape:window-y="-6"
     inkscape:window-maximized="1"
     inkscape:current-layer="layer1" /><defs
     id="defs2" /><g
     inkscape:label="Calque 1"
     inkscape:groupmode="layer"
     id="layer1"><g
       style="fill:none;fill-opacity:1;stroke:currentColor;stroke-width:1.27435;stroke-linecap:round;stroke-linejoin:round;stroke-dasharray:none"
       id="g78"
       transform="matrix(0.78471282,0,0,0.78471282,0.38696093,2.7156703)"><path
         d="M 9.3994839,19.571207 C 8.9197315,19.03555 7.6621867,19.258334 7.18,19.73 l -0.06,0.06 c -0.7812281,0.782098 -2.0487719,0.782098 -2.83,0 -0.7820978,-0.781228 -0.7820978,-2.048772 0,-2.83 L 4.35,16.9 C 4.8216659,16.417813 4.9523465,15.69709 4.68,15.08 4.4209317,14.475529 3.8276429,14.082623 3.17,14.08 H 3 c -1.1045695,0 -2,-0.895431 -2,-2 0,-1.104569 0.8954305,-2 2,-2 H 3.09 C 3.7673292,10.064157 4.3661348,9.6358718 4.6,9 4.8723465,8.3829099 4.7416659,7.6621867 4.27,7.18 L 4.21,7.12 C 3.4279022,6.3387719 3.4279022,5.0712281 4.21,4.29 4.9912281,3.5079022 6.2587719,3.5079022 7.04,4.29 L 7.1,4.35 C 7.5821867,4.8216659 8.3029099,4.9523465 8.92,4.68 H 9 C 9.6044706,4.4209317 9.9973771,3.8276429 10,3.17 V 3 c 0,-1.1045695 0.895431,-2 2,-2 1.104569,0 2,0.8954305 2,2 v 0.09 c 0.0026,0.6576429 0.395529,1.2509317 1,1.51 0.61709,0.2723465 1.337813,0.1416659 1.82,-0.33 l 0.06,-0.06 c 0.781228,-0.7820978 2.391187,-1.0674434 3.115346,0.3994838 0.58374,1.6593335 -0.588536,1.6590298 -1.736465,3.2862028 -1.147929,1.627173 -1.820201,3.4061754 -1.590383,5.5179384 0.10709,0.984034 0.02941,1.802069 -1.444188,3.14844 -1.583973,1.447219 -4.256463,4.722614 -5.02586,4.664146 -0.7693978,-0.05847 -0.3192137,-1.119347 -0.7989661,-1.655004 z"
         id="path68"
         style="fill:none;fill-opacity:1;stroke-width:1.27435;stroke-dasharray:none"
         sodipodi:nodetypes="zcccccccsssccccccccccssscccccssszz" /><circle
         cx="12"
         cy="12"
         r="3"
         id="circle66"
         style="fill:none;fill-opacity:1;stroke:currentColor;stroke-width:1.27435;stroke-linecap:round;stroke-linejoin:round;stroke-dasharray:none" /></g><g
       style="fill:none;fill-opacity:1;fill-rule:nonzero;stroke:currentColor;stroke-width:1.18194;stroke-linecap:round;stroke-linejoin:round;stroke-dasharray:none;stroke-dashoffset:0"
       id="g197"
       transform="matrix(0.84606874,0,0,0.84606874,6.1829547,5.8954167)"><path
         d="m 15.176375,6.4058611 a 1,1 0 0 0 0,1.4 l 1.6,1.6 a 1,1 0 0 0 1.4,0 l 3.77,-3.77 a 6,6 0 0 1 -7.94,7.9399999 l -6.9100002,6.91 a 2.1213203,2.1213203 0 0 1 -3,-3 l 6.9100002,-6.91 a 6,6 0 0 1 7.94,-7.9399999 l -3.76,3.76 z"
         id="path188"
         style="fill:none;fill-opacity:1;fill-rule:nonzero;stroke-width:1.18194;stroke-dasharray:none;stroke-dashoffset:0" /></g></g></svg>
